<svg width="389" height="235" viewBox="0 0 389 235" fill="none" xmlns="http://www.w3.org/2000/svg">
<path d="M375.71 213.135L253.272 10.6825C250.958 6.85506 249.8 4.94134 247.906 4.03924C246.011 3.13714 243.796 3.44499 239.366 4.0607L210.828 8.02669C201.529 9.31904 196.88 9.96522 195.242 13.3044C193.604 16.6435 195.94 20.7155 200.611 28.8593L314.465 227.346C316.434 230.778 317.418 232.494 319.046 233.437C320.674 234.38 322.652 234.38 326.609 234.38H363.731C374.733 234.38 380.234 234.38 382.242 230.818C384.25 227.256 381.404 222.549 375.71 213.135Z" fill="white"/>
<path d="M369.5 62.1089C395.295 131.06 355.635 139.971 337.431 149.872C337.139 150.031 336.833 150.139 336.506 150.197L278.577 160.487C277.331 160.708 276.08 160.124 275.45 159.026L187.078 4.99293C185.93 2.99294 187.402 0.49889 189.708 0.491801C285.591 0.196977 343.446 -7.53509 369.5 62.1089Z" fill="white"/>
<path d="M126.683 136.579L73.9117 228.105C72.785 230.059 72.2217 231.036 71.2931 231.572C70.3645 232.109 69.2367 232.109 66.9811 232.109H13.8714C7.70718 232.109 4.62506 232.109 3.47067 230.107C2.31628 228.106 3.85984 225.438 6.94696 220.102L127.299 12.0975C130.382 6.76895 131.923 4.10468 134.232 4.10644C136.541 4.1082 138.079 6.77482 141.154 12.1081L261.083 220.113C264.158 225.445 265.695 228.111 264.54 230.11C263.385 232.109 260.308 232.109 254.153 232.109H200.245C197.99 232.109 196.862 232.109 195.933 231.572C195.005 231.036 194.441 230.059 193.315 228.105L140.544 136.579C137.464 131.238 135.924 128.567 133.613 128.567C131.302 128.567 129.762 131.238 126.683 136.579Z" fill="white"/>
</svg>
